<svg width="20" height="20" viewBox="0 0 20 20" fill="none" xmlns="http://www.w3.org/2000/svg">
<path d="M7.79053 15.4688C7.93376 15.8739 8.18561 16.2318 8.51855 16.5035C8.85148 16.7751 9.2527 16.95 9.67832 17.009C10.1039 17.0681 10.5376 17.0089 10.9319 16.8381C11.3262 16.6673 11.6659 16.3914 11.914 16.0405C12.1621 15.6897 12.3089 15.2774 12.3384 14.8487C12.368 14.42 12.2791 13.9914 12.0815 13.6099C11.884 13.2283 11.5853 12.9083 11.2182 12.6851C10.851 12.4618 10.4296 12.3437 9.9999 12.3438" stroke="#474E69" stroke-width="1.5" stroke-linecap="round" stroke-linejoin="round"/>
<path d="M12.2107 4.53125C12.0675 4.12619 11.8157 3.76829 11.4828 3.49665C11.15 3.22501 10.7488 3.0501 10.3233 2.99102C9.89773 2.93194 9.46413 2.99096 9.06985 3.16165C8.67558 3.33233 8.33581 3.60811 8.08767 3.95883C7.83953 4.30956 7.69257 4.72175 7.66284 5.15035C7.63312 5.57896 7.72178 6.00748 7.91913 6.38911C8.11648 6.77073 8.41494 7.09076 8.78187 7.31424C9.14881 7.53771 9.57012 7.65603 9.99975 7.65625" stroke="#474E69" stroke-width="1.5" stroke-linecap="round" stroke-linejoin="round"/>
<path d="M7.65625 10C7.65625 10.6216 7.90318 11.2177 8.34272 11.6573C8.78226 12.0968 9.3784 12.3438 10 12.3438C10.6216 12.3438 11.2177 12.0968 11.6573 11.6573C12.0968 11.2177 12.3438 10.6216 12.3438 10C12.3438 9.3784 12.0968 8.78226 11.6573 8.34272C11.2177 7.90318 10.6216 7.65625 10 7.65625C9.3784 7.65625 8.78226 7.90318 8.34272 8.34272C7.90318 8.78226 7.65625 9.3784 7.65625 10Z" stroke="#474E69" stroke-width="1.5" stroke-linecap="round" stroke-linejoin="round"/>
</svg>
