<svg width="20" height="20" viewBox="0 0 20 20" fill="none" xmlns="http://www.w3.org/2000/svg">
<path d="M3.12362 8.14668C3.21698 8.13241 3.31277 8.125 3.41051 8.125H16.5867C16.6845 8.125 16.7802 8.13241 16.8736 8.14668M3.12362 8.14668C2.12694 8.299 1.40681 9.23235 1.55435 10.2652L2.26864 15.2652C2.4006 16.1889 3.1917 16.875 4.1248 16.875H15.8724C16.8055 16.875 17.5966 16.1889 17.7286 15.2652L18.4429 10.2652C18.5904 9.23235 17.8703 8.299 16.8736 8.14668M3.12362 8.14668V5C3.12362 3.96447 3.96308 3.125 4.99862 3.125H8.23085C8.56237 3.125 8.88031 3.2567 9.11473 3.49112L10.8825 5.25888C11.1169 5.4933 11.4349 5.625 11.7664 5.625H14.9986C16.0341 5.625 16.8736 6.46447 16.8736 7.5V8.14668" stroke="#F8F9FC" stroke-width="1.25" stroke-linecap="round" stroke-linejoin="round"/>
</svg>
