<svg width="20" height="20" viewBox="0 0 20 20" fill="none" xmlns="http://www.w3.org/2000/svg">
<path d="M1.875 10.625V10C1.875 8.96447 2.71447 8.125 3.75 8.125H16.25C17.2855 8.125 18.125 8.96447 18.125 10V10.625M10.8839 5.25888L9.11612 3.49112C8.8817 3.2567 8.56375 3.125 8.23223 3.125H3.75C2.71447 3.125 1.875 3.96447 1.875 5V15C1.875 16.0355 2.71447 16.875 3.75 16.875H16.25C17.2855 16.875 18.125 16.0355 18.125 15V7.5C18.125 6.46447 17.2855 5.625 16.25 5.625H11.7678C11.4362 5.625 11.1183 5.4933 10.8839 5.25888Z" stroke="#949BB8" stroke-width="1.25" stroke-linecap="round" stroke-linejoin="round"/>
</svg>
