<svg width="24" height="24" viewBox="0 0 24 24" fill="none" xmlns="http://www.w3.org/2000/svg">
<path d="M10.25 1.5C15.5512 1.5 19.8615 5.73079 19.9941 11H18.4219C18.1412 9.85238 17.1091 9 15.875 9H14.375C13.3395 9 12.5 8.16053 12.5 7.125V5.625C12.5 4.17525 11.3247 3 9.875 3H5.375C5.16789 3 5 3.16789 5 3.375V20.625C5 20.8321 5.16789 21 5.375 21H8V22.5H5.375C4.33947 22.5 3.5 21.6605 3.5 20.625V3.375C3.5 2.33947 4.33947 1.5 5.375 1.5H10.25ZM13.5068 3.66895C13.821 4.25111 14 4.91706 14 5.625V7.125C14 7.33211 14.1679 7.5 14.375 7.5H15.875C16.5825 7.5 17.2482 7.67837 17.8301 7.99219C16.9966 6.05545 15.4437 4.50214 13.5068 3.66895Z" fill="#F8F9FC"/>
<rect x="10" y="13" width="11" height="11" rx="2" fill="#A3E635"/>
<path d="M15.6139 15C16.6976 15 17.5856 15.3742 18.1783 16.0445C18.7496 16.6907 19 17.5564 19 18.5V19.131H13.5818C13.6795 19.5552 13.8721 19.903 14.1247 20.1598C14.4835 20.5243 14.9852 20.738 15.6139 20.7381C16.2579 20.7381 16.748 20.525 17.0831 20.2864C17.2201 20.1889 17.0831 20.2864 17.4906 19.9906H19C19 20.2214 18.4815 20.9488 18.063 21.2469C17.5116 21.6396 16.6854 22 15.6139 22C14.5275 21.9999 13.6003 21.6134 12.9584 20.9611C12.3262 20.3184 12 19.451 12 18.5C12 17.549 12.3262 16.6815 12.9584 16.0389C13.6003 15.3866 14.5275 15.0001 15.6139 15ZM15.6139 16.2619C14.9851 16.262 14.4835 16.4758 14.1247 16.8402C13.872 17.097 13.6794 17.4447 13.5818 17.869H17.437C17.3563 17.4064 17.1873 17.0482 16.9638 16.7954C16.6688 16.4617 16.241 16.2619 15.6139 16.2619Z" fill="#070A1A"/>
</svg>
