<svg width="19" height="18" viewBox="0 0 19 18" fill="none" xmlns="http://www.w3.org/2000/svg">
<path d="M3.8748 2.70001C3.00496 2.70001 2.2998 3.40516 2.2998 4.27501V7.20983C2.75444 6.91876 3.29492 6.75001 3.8748 6.75001H15.1248C15.7047 6.75001 16.2452 6.91876 16.6998 7.20983V6.07501C16.6998 5.20516 15.9947 4.50001 15.1248 4.50001H10.7726C10.7129 4.50001 10.6557 4.47631 10.6135 4.43411L9.34071 3.16132C9.04534 2.86595 8.64473 2.70001 8.22701 2.70001H3.8748Z" fill="#F8F9FC"/>
<path d="M3.8748 8.10001C3.00496 8.10001 2.2998 8.80516 2.2998 9.67501V13.725C2.2998 14.5949 3.00496 15.3 3.8748 15.3H15.1248C15.9947 15.3 16.6998 14.5949 16.6998 13.725V9.67501C16.6998 8.80516 15.9947 8.10001 15.1248 8.10001H3.8748Z" fill="#F8F9FC"/>
</svg>
