<svg width="20" height="20" viewBox="0 0 20 20" fill="none" xmlns="http://www.w3.org/2000/svg">
<path d="M3.12508 8.14668C3.21845 8.13241 3.31424 8.125 3.41197 8.125H16.5882C16.6859 8.125 16.7817 8.13241 16.8751 8.14668M3.12508 8.14668C2.12841 8.299 1.40827 9.23235 1.55582 10.2652L2.2701 15.2652C2.40206 16.1889 3.19317 16.875 4.12626 16.875H15.8739C16.807 16.875 17.5981 16.1889 17.7301 15.2652L18.4443 10.2652C18.5919 9.23235 17.8718 8.299 16.8751 8.14668M3.12508 8.14668V5C3.12508 3.96447 3.96455 3.125 5.00008 3.125H8.23231C8.56383 3.125 8.88178 3.2567 9.1162 3.49112L10.884 5.25888C11.1184 5.4933 11.4363 5.625 11.7678 5.625H15.0001C16.0356 5.625 16.8751 6.46447 16.8751 7.5V8.14668" stroke="#111420" stroke-width="1.25" stroke-linecap="round" stroke-linejoin="round"/>
</svg>
