<svg width="19" height="18" viewBox="0 0 19 18" fill="none" xmlns="http://www.w3.org/2000/svg">
<path d="M3.8748 2.7C3.00496 2.7 2.2998 3.40515 2.2998 4.275V7.20982C2.75444 6.91875 3.29492 6.75 3.8748 6.75H15.1248C15.7047 6.75 16.2452 6.91875 16.6998 7.20982V6.075C16.6998 5.20515 15.9947 4.5 15.1248 4.5H10.7726C10.7129 4.5 10.6557 4.47629 10.6135 4.4341L9.34071 3.1613C9.04534 2.86593 8.64473 2.7 8.22701 2.7H3.8748Z" fill="#949BB8"/>
<path d="M3.8748 8.1C3.00496 8.1 2.2998 8.80515 2.2998 9.675V13.725C2.2998 14.5948 3.00496 15.3 3.8748 15.3H15.1248C15.9947 15.3 16.6998 14.5948 16.6998 13.725V9.675C16.6998 8.80515 15.9947 8.1 15.1248 8.1H3.8748Z" fill="#949BB8"/>
</svg>
