<svg width="21" height="20" viewBox="0 0 21 20" fill="none" xmlns="http://www.w3.org/2000/svg">
<path fill-rule="evenodd" clip-rule="evenodd" d="M4.75 5.5C4.33579 5.5 4 5.83579 4 6.25V14.75C4 15.1642 4.33579 15.5 4.75 15.5H13.25C13.6642 15.5 14 15.1642 14 14.75V10.75C14 10.3358 14.3358 10 14.75 10C15.1642 10 15.5 10.3358 15.5 10.75V14.75C15.5 15.9926 14.4926 17 13.25 17H4.75C3.50736 17 2.5 15.9926 2.5 14.75V6.25C2.5 5.00736 3.50736 4 4.75 4H9.75C10.1642 4 10.5 4.33579 10.5 4.75C10.5 5.16421 10.1642 5.5 9.75 5.5H4.75Z" fill="#F8F9FC"/>
<path fill-rule="evenodd" clip-rule="evenodd" d="M6.69385 12.7532C6.97175 13.0603 7.44603 13.0841 7.75319 12.8062L17 4.43999V7.25C17 7.66421 17.3358 8 17.75 8C18.1642 8 18.5 7.66421 18.5 7.25V2.75C18.5 2.33579 18.1642 2 17.75 2H13.25C12.8358 2 12.5 2.33579 12.5 2.75C12.5 3.16421 12.8358 3.5 13.25 3.5H15.8032L6.74682 11.6938C6.43966 11.9717 6.41595 12.446 6.69385 12.7532Z" fill="#F8F9FC"/>
</svg>
