<svg width="19" height="18" viewBox="0 0 19 18" fill="none" xmlns="http://www.w3.org/2000/svg">
<path fill-rule="evenodd" clip-rule="evenodd" d="M5.90002 4.275C5.90002 3.90221 6.20223 3.6 6.57503 3.6H16.025C16.3978 3.6 16.7 3.90221 16.7 4.275C16.7 4.64779 16.3978 4.95 16.025 4.95H6.57503C6.20223 4.95 5.90002 4.64779 5.90002 4.275ZM5.90002 9C5.90002 8.62721 6.20223 8.325 6.57503 8.325H16.025C16.3978 8.325 16.7 8.62721 16.7 9C16.7 9.37279 16.3978 9.675 16.025 9.675H6.57503C6.20223 9.675 5.90002 9.37279 5.90002 9ZM5.90002 13.725C5.90002 13.3522 6.20223 13.05 6.57503 13.05H16.025C16.3978 13.05 16.7 13.3522 16.7 13.725C16.7 14.0978 16.3978 14.4 16.025 14.4H6.57503C6.20223 14.4 5.90002 14.0978 5.90002 13.725Z" fill="#949BB8"/>
<path fill-rule="evenodd" clip-rule="evenodd" d="M2.29102 4.275C2.29102 3.77794 2.69396 3.375 3.19102 3.375H3.20002C3.69707 3.375 4.10002 3.77794 4.10002 4.275V4.284C4.10002 4.78106 3.69707 5.184 3.20002 5.184H3.19102C2.69396 5.184 2.29102 4.78106 2.29102 4.284V4.275Z" fill="#949BB8"/>
<path fill-rule="evenodd" clip-rule="evenodd" d="M2.29102 13.725C2.29102 13.2279 2.69396 12.825 3.19102 12.825H3.20002C3.69707 12.825 4.10002 13.2279 4.10002 13.725V13.734C4.10002 14.2311 3.69707 14.634 3.20002 14.634H3.19102C2.69396 14.634 2.29102 14.2311 2.29102 13.734V13.725Z" fill="#949BB8"/>
<path fill-rule="evenodd" clip-rule="evenodd" d="M2.29102 9C2.29102 8.50294 2.69396 8.1 3.19102 8.1H3.20002C3.69707 8.1 4.10002 8.50294 4.10002 9V9.009C4.10002 9.50606 3.69707 9.909 3.20002 9.909H3.19102C2.69396 9.909 2.29102 9.50606 2.29102 9.009V9Z" fill="#949BB8"/>
</svg>
