<svg width="126" height="32" viewBox="0 0 126 32" fill="none" xmlns="http://www.w3.org/2000/svg">
<path d="M47.0777 24.2151C43.9796 24.2151 41.6991 22.2574 41.3334 19.3099H43.5924C43.7 21.698 44.5605 22.4725 47.0777 22.4725C49.3582 22.4725 50.4554 21.698 50.4554 20.0414V19.1808C50.4554 17.933 49.9175 17.5888 47.2928 17.2015L46.2601 17.0509C43.5709 16.6637 41.8712 14.9856 41.8712 12.7911C41.8712 10.36 44.1302 8.3377 46.8195 8.3377C49.7669 8.3377 51.8753 10.1664 52.2626 13.0278H50.0036C49.9175 10.8118 49.1215 10.0803 46.8195 10.0803C44.8402 10.0803 43.8936 10.8118 43.8936 12.3393V13.0708C43.8936 14.4047 44.5605 14.878 46.9916 15.2437L48.0243 15.3943C51.0363 15.8461 52.4777 17.1585 52.4777 19.4605C52.4777 22.1068 50.0681 24.2151 47.0777 24.2151ZM60.0287 12.533C62.7395 12.533 65.063 15.2007 65.063 18.3203C65.063 21.5904 62.7825 24.2151 59.9426 24.2151C58.6303 24.2151 57.404 23.5697 56.5004 22.4295V28.4534H54.6071V12.7481H56.3928V14.4907C57.1888 13.329 58.6088 12.533 60.0287 12.533ZM62.9546 19.2454V17.5242C62.9546 15.2007 61.9865 14.2111 59.7275 14.2111C57.4685 14.2111 56.5004 15.2007 56.5004 17.5242V19.2454C56.5004 21.5474 57.4685 22.537 59.7275 22.537C61.9865 22.537 62.9546 21.5474 62.9546 19.2454ZM68.2382 14.8565C69.1203 13.5656 70.5617 12.7481 72.3044 12.533V14.921H70.5617C69.0342 14.921 68.3458 15.6095 68.3458 17.137V24H66.4525V12.7481H68.2382V14.8565ZM78.0162 24.2151C75.0042 24.2151 72.6807 21.655 72.6807 18.3633C72.6807 15.0716 75.0042 12.533 78.0162 12.533C81.0282 12.533 83.3517 15.0716 83.3517 18.3633C83.3517 21.655 81.0282 24.2151 78.0162 24.2151ZM78.0162 22.537C80.2752 22.537 81.2433 21.5474 81.2433 19.2239V17.5027C81.2433 15.2007 80.2752 14.2111 78.0162 14.2111C75.7572 14.2111 74.7891 15.2007 74.7891 17.5027V19.2239C74.7891 21.5474 75.7572 22.537 78.0162 22.537ZM89.6996 24.2151C86.7952 24.2151 84.5362 21.655 84.5362 18.3633C84.5362 15.0716 86.7737 12.533 89.6996 12.533C92.1092 12.533 94.2391 14.4477 94.6263 16.9649H92.604C92.4749 14.9856 91.6359 14.2111 89.6566 14.2111C87.5482 14.2111 86.6446 15.2007 86.6446 17.5027V19.2239C86.6446 21.5474 87.5482 22.537 89.6566 22.537C91.6359 22.537 92.4749 21.7625 92.604 19.7832H94.6263C94.2391 22.3004 92.1092 24.2151 89.6996 24.2151ZM96.4513 24V8.55284H98.3446V17.5673H99.8506L103.486 12.7481H105.724L101.4 18.2772L105.724 24H103.314L99.8506 19.1593H98.3446V24H96.4513ZM116.727 18.9442H108.423V19.439C108.423 21.6334 109.391 22.537 111.671 22.537C113.478 22.537 114.318 21.9346 114.49 20.5362H116.684C115.931 22.6661 113.78 24.2151 111.671 24.2151C108.595 24.2151 106.314 21.8916 106.314 18.6C106.314 15.2007 108.616 12.533 111.671 12.533C114.511 12.533 116.727 14.9856 116.727 18.1482V18.9442ZM111.693 14.2111C109.455 14.2111 108.423 15.0931 108.423 17.1155V17.3521H114.619V17.0724C114.619 15.0501 113.823 14.2111 111.693 14.2111ZM122.916 24.1076C120.873 24.1076 119.517 22.8167 119.517 20.902V14.3401H117.065V12.7481H119.517V8.55284H121.41V12.7481H124.638V14.3401H121.41V21.1171C121.41 21.9777 121.841 22.408 122.701 22.408H124.422V24.1076H122.916Z" fill="#070A1A"/>
<mask id="mask0_3100_8065" style="mask-type:alpha" maskUnits="userSpaceOnUse" x="-1" y="0" width="32" height="32">
<path fill-rule="evenodd" clip-rule="evenodd" d="M12.6548 1.28981C12.8237 0.922363 13.191 0.686897 13.5954 0.686897H16.7464C17.1848 0.686897 17.5758 0.963109 17.7222 1.3764L18.7254 4.20727C18.8477 4.66356 19.0553 5.09099 19.3357 5.46761L19.3347 5.46822L19.59 5.80108C20.6556 7.19067 22.1084 8.23403 23.7655 8.79986L24.0174 8.88584L25.0106 5.42124L22.4683 3.57418L20.3507 4.85416L19.9509 3.88608L21.9328 2.68815C22.2892 2.47273 22.74 2.49182 23.0769 2.7366L25.6191 4.58366C25.9712 4.83948 26.1257 5.28819 26.0058 5.70655L25.2359 8.39214C24.9561 9.07675 24.8485 9.81973 24.9228 10.5559C25.0214 12.2916 25.6278 13.9615 26.6683 15.3573L26.8026 15.5374L29.523 13.2801L28.5522 10.2922L26.0157 10.1576V10.0367C26.0157 9.72956 26.0609 9.42411 26.1498 9.13014L26.1504 9.12801L28.607 9.25835C29.0348 9.28105 29.4044 9.56486 29.5368 9.97227L30.5077 12.9602C30.6387 13.3636 30.5105 13.806 30.1841 14.0769L28.3819 15.5723L28.1178 15.7655C27.6242 16.1268 27.1883 16.5593 26.8239 17.0482L26.8164 17.042L26.7526 17.1337C25.6381 18.7347 25.0821 20.6582 25.1705 22.6068L28.5475 22.2902L29.523 19.2878L27.6367 17.7227C27.8243 17.4292 28.0594 17.1696 28.3317 16.9541L30.1841 18.491C30.5105 18.7619 30.6387 19.2044 30.5077 19.6077L29.5321 22.6101C29.4045 23.003 29.0555 23.2824 28.6441 23.321L25.2631 23.638L25.2644 23.6475L25.2588 23.648C24.9137 23.6768 24.5744 23.7494 24.2489 23.8637L24.2481 23.8581L24.246 23.8589C22.3502 24.4792 20.72 25.7195 19.6165 27.3779L22.4541 28.9955L24.7099 27.2841L24.3948 24.9458C24.7158 24.8092 25.0594 24.7319 25.4087 24.7181L25.736 27.1458C25.7858 27.5155 25.6329 27.8834 25.3357 28.1089L23.0798 29.8203C22.7495 30.0709 22.3015 30.1003 21.9413 29.8949L19.4386 28.4682C18.9417 28.1584 18.4039 27.9197 17.8408 27.7591C17.5938 27.6839 17.3445 27.6198 17.0934 27.5667L16.9886 27.5401L16.9897 27.5454C15.4586 27.2406 13.8685 27.344 12.3818 27.853L13.6107 30.8457H16.7822L17.7174 28.838C18.0349 28.9793 18.3361 29.1549 18.6155 29.3617L17.7207 31.2828C17.5507 31.6477 17.1847 31.881 16.7822 31.881H13.6107C13.1908 31.881 12.8125 31.6274 12.653 31.239L11.6711 28.8478L11.6807 28.8437C11.6075 28.6435 11.5234 28.4478 11.4287 28.2573L11.4249 28.2481L11.4243 28.2484C11.2906 27.9806 11.1361 27.7233 10.9621 27.479L10.8813 27.3656L10.8824 27.365L10.8632 27.3401L10.8334 27.2983L10.8318 27.2993L10.6786 27.1002C9.55371 25.6385 8.00138 24.5634 6.23735 24.0246L6.10851 23.9852L5.35181 27.1369L7.91906 29.0021L9.97914 27.864C10.1503 28.1654 10.2974 28.4796 10.4192 28.8037L8.4197 29.9084C8.06799 30.1027 7.6356 30.0759 7.31052 29.8397L4.74327 27.9745C4.4045 27.7284 4.24735 27.3024 4.34511 26.8952L4.91544 24.5198L5.08607 24.0394C5.2411 23.603 5.29738 23.1376 5.25086 22.6768L5.18536 22.0279C5.09604 20.3673 4.54175 18.7628 3.58284 17.3991L3.38648 17.1198L0.851167 19.2829L1.83229 22.3025L3.93681 22.5749L3.93904 22.703C3.94351 22.9583 3.91672 23.2132 3.85929 23.462L3.82638 23.6046L1.69936 23.3292C1.30278 23.2779 0.971231 23.0027 0.847658 22.6224L-0.133465 19.6028C-0.262924 19.2044 -0.139501 18.7672 0.179207 18.4953L2.48868 16.5249C2.82931 16.3084 3.13435 16.0413 3.39359 15.7336L3.39516 15.7351L3.40733 15.7172C3.5571 15.5374 3.69132 15.3439 3.80799 15.1386L3.90529 14.9674L3.90373 14.9671C4.71787 13.6297 5.16521 12.0983 5.19638 10.5276L5.20503 10.092L1.82425 10.2902L0.844906 13.3043L2.56751 14.9462L2.2807 15.227C2.20068 15.3054 2.11476 15.3775 2.02372 15.4427L1.77489 15.621L0.130602 14.0537C-0.157686 13.7789 -0.262796 13.3631 -0.139726 12.9844L0.839616 9.97027C0.971345 9.56485 1.33811 9.28161 1.76366 9.25667L4.49783 9.09638L4.49795 9.09866L5.175 9.06151C5.45013 9.04641 5.72221 8.99837 5.98544 8.91858L5.98591 8.92112L6.13319 8.87182C7.94963 8.26373 9.52062 7.08435 10.6115 5.50983L10.6469 5.45883L7.89111 3.58606L5.33658 5.44203L5.77284 7.77948L4.72986 7.83414L4.31885 5.63198C4.24554 5.23921 4.4048 4.83931 4.72804 4.60446L7.28258 2.74848C7.63576 2.49187 8.11196 2.48439 8.47303 2.72977L10.5896 4.16818L10.588 4.16949L11.1174 4.54751C11.4914 4.81462 11.9151 5.00418 12.3635 5.10501L12.555 5.14808C14.2674 5.6374 16.0891 5.60069 17.7828 5.04013L17.9075 4.99887L16.7464 1.7222H13.5954L12.5857 3.91893L11.6603 3.4533L12.6548 1.28981ZM11.579 5.93132L11.4625 6.09945C10.2444 7.85762 8.49015 9.17455 6.46185 9.85357L6.24381 9.92656L6.23148 10.5482C6.19338 12.4682 5.5983 14.3358 4.5186 15.924L4.17089 16.4355L4.42974 16.8036C5.56601 18.4196 6.19348 20.3382 6.23163 22.3133L6.24381 22.944L6.53982 23.0344C8.5096 23.6362 10.243 24.8366 11.4991 26.4688L11.8609 26.9391C13.9572 26.1746 16.2507 26.1398 18.3699 26.841L18.6665 26.9391L18.6669 26.9384C19.8996 25.0194 21.7563 23.5842 23.924 22.8749L24.143 22.8032L24.1363 22.6554C24.0373 20.4789 24.6581 18.3304 25.9028 16.5423L26.0755 16.2942L25.8383 15.9761C24.6394 14.3679 23.9567 12.4337 23.8803 10.4293L23.8612 9.92651L23.431 9.77963C21.5805 9.1478 19.9583 7.98274 18.7684 6.43107L18.3852 5.9313L18.1081 6.023C16.1444 6.67292 14.0266 6.69221 12.0514 6.07816L11.579 5.93132Z" fill="#070A1A"/>
<path fill-rule="evenodd" clip-rule="evenodd" d="M14.8461 1.73952C14.8452 1.50766 14.6565 1.32044 14.4247 1.32136L14.2291 1.32213C13.9972 1.32305 13.81 1.51179 13.8109 1.74368L13.8211 4.21623L14.8565 4.37846L14.8461 1.73952Z" fill="#070A1A"/>
<path fill-rule="evenodd" clip-rule="evenodd" d="M16.4911 1.73952C16.4902 1.50766 16.3015 1.32044 16.0697 1.32136L15.8741 1.32213C15.6422 1.32305 15.455 1.51179 15.4559 1.74368L15.4661 4.21623L16.5015 4.37846L16.4911 1.73952Z" fill="#070A1A"/>
<path fill-rule="evenodd" clip-rule="evenodd" d="M15.4922 30.8971C15.4922 31.129 15.6802 31.317 15.912 31.317L16.1076 31.317C16.3395 31.317 16.5275 31.129 16.5274 30.8971L16.527 28.4245L15.4923 28.2582L15.4922 30.8971Z" fill="#070A1A"/>
<path fill-rule="evenodd" clip-rule="evenodd" d="M13.8472 30.8906C13.8472 31.1225 14.0351 31.3105 14.267 31.3105L14.4626 31.3105C14.6945 31.3105 14.8824 31.1225 14.8824 30.8906L14.882 28.418L13.8473 28.2517L13.8472 30.8906Z" fill="#070A1A"/>
<path fill-rule="evenodd" clip-rule="evenodd" d="M23.5863 4.36606C23.7225 4.17847 23.6809 3.91593 23.4933 3.77966L23.3351 3.66471C23.1475 3.52843 22.8849 3.57007 22.7487 3.7577L21.2958 5.75844L22.0352 6.50112L23.5863 4.36606Z" fill="#070A1A"/>
<path fill-rule="evenodd" clip-rule="evenodd" d="M24.9132 5.33808C25.0494 5.15049 25.0078 4.88794 24.8202 4.75168L24.662 4.63673C24.4744 4.50045 24.2118 4.54208 24.0756 4.72972L22.6227 6.73045L23.3622 7.47314L24.9132 5.33808Z" fill="#070A1A"/>
<path fill-rule="evenodd" clip-rule="evenodd" d="M6.87773 28.2703C6.74071 28.4574 6.78128 28.7201 6.96833 28.8571L7.12612 28.9727C7.31319 29.1097 7.57593 29.0691 7.71292 28.882L9.17364 26.887L8.43718 26.1414L6.87773 28.2703Z" fill="#070A1A"/>
<path fill-rule="evenodd" clip-rule="evenodd" d="M5.55449 27.2931C5.41747 27.4801 5.45804 27.7428 5.64509 27.8798L5.80288 27.9954C5.98995 28.1324 6.25268 28.0918 6.38967 27.9047L7.8504 25.9098L7.11394 25.1642L5.55449 27.2931Z" fill="#070A1A"/>
<path fill-rule="evenodd" clip-rule="evenodd" d="M28.9841 11.4714C29.2042 11.3983 29.3233 11.1607 29.2503 10.9407L29.1887 10.755C29.1156 10.535 28.878 10.4158 28.6579 10.4889L26.3114 11.2683L26.4795 12.3028L28.9841 11.4714Z" fill="#070A1A"/>
<path fill-rule="evenodd" clip-rule="evenodd" d="M29.4963 13.0346C29.7164 12.9615 29.8356 12.7239 29.7625 12.5039L29.7009 12.3183C29.6278 12.0982 29.3902 11.979 29.1701 12.0521L26.8236 12.8316L26.9917 13.866L29.4963 13.0346Z" fill="#070A1A"/>
<path fill-rule="evenodd" clip-rule="evenodd" d="M1.47661 21.1624C1.25626 21.2346 1.13615 21.4717 1.20834 21.692L1.26923 21.8779C1.34142 22.0983 1.57859 22.2184 1.79894 22.1461L4.14851 21.376L3.98446 20.3409L1.47661 21.1624Z" fill="#070A1A"/>
<path fill-rule="evenodd" clip-rule="evenodd" d="M0.970506 19.5972C0.750161 19.6693 0.63005 19.9065 0.702233 20.1268L0.763122 20.3127C0.835312 20.533 1.07249 20.6531 1.29284 20.5809L3.64241 19.8108L3.47836 18.7757L0.970506 19.5972Z" fill="#070A1A"/>
<path fill-rule="evenodd" clip-rule="evenodd" d="M29.1703 20.594C29.3907 20.666 29.6278 20.5458 29.6998 20.3254L29.7606 20.1395C29.8327 19.9191 29.7124 19.682 29.492 19.61L27.1417 18.842L26.662 19.7738L29.1703 20.594Z" fill="#070A1A"/>
<path fill-rule="evenodd" clip-rule="evenodd" d="M28.653 22.1555C28.8733 22.2275 29.1104 22.1073 29.1825 21.8869L29.2433 21.701C29.3153 21.4806 29.1951 21.2435 28.9746 21.1715L26.6244 20.4034L26.1447 21.3352L28.653 22.1555Z" fill="#070A1A"/>
<path fill-rule="evenodd" clip-rule="evenodd" d="M1.28939 12.0357C1.06929 11.9628 0.831745 12.0821 0.758814 12.3022L0.697294 12.4878C0.624356 12.7079 0.74369 12.9455 0.963818 13.0184L3.31102 13.7957L3.79437 12.8659L1.28939 12.0357Z" fill="#070A1A"/>
<path fill-rule="evenodd" clip-rule="evenodd" d="M1.81282 10.4763C1.59273 10.4034 1.35518 10.5227 1.28225 10.7428L1.22073 10.9284C1.14779 11.1485 1.26713 11.3861 1.48726 11.459L3.83446 12.2363L4.31781 11.3065L1.81282 10.4763Z" fill="#070A1A"/>
<path fill-rule="evenodd" clip-rule="evenodd" d="M23.8509 27.9786C23.9867 28.1666 24.2491 28.2089 24.4371 28.0732L24.5956 27.9587C24.7836 27.823 24.826 27.5605 24.6902 27.3725L23.2425 25.3681L22.3062 25.8389L23.8509 27.9786Z" fill="#070A1A"/>
<path fill-rule="evenodd" clip-rule="evenodd" d="M22.5133 28.9362C22.649 29.1242 22.9114 29.1666 23.0994 29.0308L23.258 28.9163C23.446 28.7806 23.4883 28.5181 23.3526 28.3302L21.9048 26.3257L20.9686 26.7966L22.5133 28.9362Z" fill="#070A1A"/>
<path fill-rule="evenodd" clip-rule="evenodd" d="M6.35133 4.6473C6.21636 4.45877 5.9541 4.41537 5.76558 4.55035L5.60656 4.66421C5.41802 4.79921 5.37463 5.06149 5.50966 5.25001L6.94943 7.26015L7.88756 6.79302L6.35133 4.6473Z" fill="#070A1A"/>
<path fill-rule="evenodd" clip-rule="evenodd" d="M7.69264 3.69497C7.55766 3.50644 7.29541 3.46303 7.10689 3.59802L6.94786 3.71188C6.75932 3.84687 6.71594 4.10916 6.85097 4.29768L8.29074 6.30782L9.22887 5.84069L7.69264 3.69497Z" fill="#070A1A"/>
</mask>
<g mask="url(#mask0_3100_8065)">
<rect y="0.686714" width="30.5579" height="31.2446" fill="url(#paint0_linear_3100_8065)"/>
</g>
<defs>
<linearGradient id="paint0_linear_3100_8065" x1="8.17631" y1="6.35195" x2="31.6714" y2="36.3821" gradientUnits="userSpaceOnUse">
<stop stop-color="#F72585"/>
<stop offset="1" stop-color="#2D00F7"/>
</linearGradient>
</defs>
</svg>
