<svg width="55" height="51" viewBox="0 0 55 51" fill="none" xmlns="http://www.w3.org/2000/svg">
<rect x="3" y="1" width="50" height="50" rx="13" fill="#111420"/>
<rect x="7" y="5" width="42" height="42" rx="10" fill="#22273B"/>
<rect x="10" y="8" width="36" height="36" rx="8" fill="#333A55"/>
<path d="M21.7188 15.125C20.9421 15.125 20.3125 15.7546 20.3125 16.5312V29.4688C20.3125 30.2454 20.9421 31 21.7187 31H27.5V32H30.5C32.5 32 33.5 30.5 33.5 29V26H32.5V23.5123C32.5 21.959 31.4283 20.75 29.875 20.75H28.4688C27.6921 20.75 27.0625 20.1204 27.0625 19.3438V17.9375C27.0625 16.3842 25.8033 15.125 24.25 15.125H21.7188Z" fill="#F8F9FC"/>
<path d="M27.2284 15.3619C27.826 16.0524 28.1875 16.9527 28.1875 17.9375V19.3438C28.1875 19.4991 28.3134 19.625 28.4688 19.625H29.875C30.8598 19.625 31.7601 19.9865 32.4506 20.5841C31.7847 18.0349 29.7776 16.0278 27.2284 15.3619Z" fill="#F8F9FC"/>
<path fill-rule="evenodd" clip-rule="evenodd" d="M31.3508 26.275C29.3764 26.275 27.7758 27.8756 27.7758 29.85C27.7758 31.8245 29.3764 33.425 31.3508 33.425C32.3381 33.425 33.2312 33.0254 33.8787 32.378C34.5262 31.7305 34.9258 30.8374 34.9258 29.85C34.9258 27.8756 33.3252 26.275 31.3508 26.275ZM26.8008 29.85C26.8008 27.3372 28.8379 25.3 31.3508 25.3C33.8637 25.3 35.9008 27.3372 35.9008 29.85C35.9008 30.9307 35.5236 31.9239 34.8944 32.7042L37.058 34.8678C37.2484 35.0582 37.2484 35.3669 37.058 35.5573C36.8676 35.7476 36.5589 35.7476 36.3686 35.5573L34.205 33.3937C33.4246 34.0228 32.4314 34.4 31.3508 34.4C28.8379 34.4 26.8008 32.3629 26.8008 29.85Z" fill="#F8F9FC"/>
<mask id="mask0_3597_17234" style="mask-type:alpha" maskUnits="userSpaceOnUse" x="25" y="24" width="14" height="13">
<path fill-rule="evenodd" clip-rule="evenodd" d="M31.3508 26.275C29.3764 26.275 27.7758 27.8756 27.7758 29.85C27.7758 31.8245 29.3764 33.425 31.3508 33.425C32.3381 33.425 33.2312 33.0254 33.8787 32.378C34.5262 31.7305 34.9258 30.8374 34.9258 29.85C34.9258 27.8756 33.3252 26.275 31.3508 26.275ZM26.8008 29.85C26.8008 27.3372 28.8379 25.3 31.3508 25.3C33.8637 25.3 35.9008 27.3372 35.9008 29.85C35.9008 30.9307 35.5236 31.9239 34.8944 32.7042L37.058 34.8678C37.2484 35.0582 37.2484 35.3669 37.058 35.5573C36.8676 35.7476 36.5589 35.7476 36.3686 35.5573L34.205 33.3937C33.4246 34.0228 32.4314 34.4 31.3508 34.4C28.8379 34.4 26.8008 32.3629 26.8008 29.85Z" fill="#F8F9FC"/>
</mask>
<g mask="url(#mask0_3597_17234)">
<path d="M25.5 24H32.5V31H25.5L25.5 24Z" fill="#22273B"/>
</g>
</svg>
