<svg width="24" height="24" viewBox="0 0 24 24" fill="none" xmlns="http://www.w3.org/2000/svg">
<path fill-rule="evenodd" clip-rule="evenodd" d="M11.2001 6.8001C8.77004 6.8001 6.8001 8.77004 6.8001 11.2001C6.8001 13.6301 8.77004 15.6001 11.2001 15.6001C12.4153 15.6001 13.5145 15.1083 14.3114 14.3114C15.1083 13.5145 15.6001 12.4153 15.6001 11.2001C15.6001 8.77004 13.6301 6.8001 11.2001 6.8001ZM5.6001 11.2001C5.6001 8.1073 8.1073 5.6001 11.2001 5.6001C14.2929 5.6001 16.8001 8.1073 16.8001 11.2001C16.8001 12.5301 16.3358 13.7525 15.5615 14.7129L18.2244 17.3758C18.4587 17.6101 18.4587 17.99 18.2244 18.2244C17.99 18.4587 17.6101 18.4587 17.3758 18.2244L14.7129 15.5615C13.7525 16.3358 12.5301 16.8001 11.2001 16.8001C8.1073 16.8001 5.6001 14.2929 5.6001 11.2001Z" fill="#CBCFE1"/>
</svg>
