<svg width="20" height="20" viewBox="0 0 20 20" fill="none" xmlns="http://www.w3.org/2000/svg">
<g clip-path="url(#clip0_3100_8934)">
<path fill-rule="evenodd" clip-rule="evenodd" d="M4.16699 2.8125C4.16699 2.63991 4.3069 2.5 4.47949 2.5H6.66699H8.22949C9.43761 2.5 10.417 3.47938 10.417 4.6875V5.9375C10.417 6.80045 11.1165 7.5 11.9795 7.5H13.2295C14.2581 7.5 15.1209 8.21 15.3546 9.16667H16.167C16.3368 9.16667 16.5032 9.18077 16.6653 9.20787C16.5763 4.79771 12.9735 1.25 8.54199 1.25H8.22949H6.66699H4.47949C3.61655 1.25 2.91699 1.94955 2.91699 2.8125V17.1875C2.91699 18.0504 3.61655 18.75 4.47949 18.75H6.66813C6.66737 18.7223 6.66699 18.6945 6.66699 18.6667V17.5H4.47949C4.3069 17.5 4.16699 17.3601 4.16699 17.1875V2.8125ZM11.667 4.6875C11.667 4.09729 11.5182 3.54183 11.2562 3.05654C12.8708 3.75102 14.166 5.04624 14.8604 6.6608C14.3752 6.39875 13.8197 6.25 13.2295 6.25H11.9795C11.8069 6.25 11.667 6.11009 11.667 5.9375V4.6875Z" fill="#949BB8"/>
<rect x="8.33301" y="10.8334" width="9.16667" height="9.16667" rx="2" fill="#F472B6"/>
<path d="M14.2235 16.8316C14.2235 16.6831 14.1916 16.5457 14.1277 16.4194C14.0674 16.2894 13.9414 16.1725 13.7498 16.0685C13.5617 15.9608 13.2778 15.868 12.898 15.79C12.5786 15.7194 12.2894 15.6359 12.0303 15.5393C11.7748 15.4427 11.5566 15.3258 11.3756 15.1884C11.1981 15.051 11.0615 14.8894 10.9657 14.7037C10.8699 14.5181 10.822 14.3008 10.822 14.052C10.822 13.8143 10.8716 13.5897 10.971 13.378C11.0739 13.1663 11.2177 12.9788 11.4022 12.8154C11.5903 12.652 11.8156 12.5238 12.0783 12.431C12.3409 12.3382 12.6336 12.2917 12.9566 12.2917C13.4179 12.2917 13.8119 12.3772 14.1384 12.548C14.4648 12.7188 14.715 12.9472 14.8889 13.2331C15.0628 13.5154 15.1498 13.8292 15.1498 14.1745H14.165C14.165 14.0074 14.1171 13.8459 14.0212 13.6899C13.929 13.5302 13.7923 13.3984 13.6114 13.2944C13.4339 13.1904 13.2157 13.1385 12.9566 13.1385C12.6833 13.1385 12.4615 13.183 12.2912 13.2721C12.1244 13.3576 12.002 13.4671 11.9239 13.6008C11.8494 13.7345 11.8121 13.8756 11.8121 14.0241C11.8121 14.1356 11.8298 14.2358 11.8653 14.3249C11.9044 14.4104 11.9718 14.4902 12.0676 14.5645C12.1634 14.635 12.2983 14.7019 12.4722 14.765C12.6461 14.8281 12.8679 14.8913 13.1376 14.9544C13.6096 15.0658 13.9982 15.1995 14.3034 15.3555C14.6086 15.5114 14.8357 15.7027 14.9848 15.9292C15.1338 16.1558 15.2083 16.4306 15.2083 16.7536C15.2083 17.0173 15.1551 17.2587 15.0486 17.4778C14.9457 17.6969 14.7949 17.8863 14.5962 18.046C14.401 18.202 14.1667 18.3245 13.8935 18.4136C13.6238 18.499 13.3203 18.5417 12.9832 18.5417C12.4757 18.5417 12.0463 18.4471 11.695 18.2577C11.3436 18.0683 11.0775 17.8232 10.8965 17.5224C10.7155 17.2216 10.625 16.904 10.625 16.5698H11.6151C11.6293 16.8521 11.7074 17.0767 11.8494 17.2438C11.9913 17.4072 12.1652 17.5242 12.371 17.5948C12.5769 17.6616 12.7809 17.695 12.9832 17.695C13.2529 17.695 13.4783 17.6579 13.6593 17.5836C13.8438 17.5094 13.984 17.4072 14.0798 17.2773C14.1756 17.1473 14.2235 16.9987 14.2235 16.8316Z" fill="black"/>
</g>
<defs>
<clipPath id="clip0_3100_8934">
<rect width="20" height="20" fill="white"/>
</clipPath>
</defs>
</svg>
