<svg width="20" height="20" viewBox="0 0 20 20" fill="none" xmlns="http://www.w3.org/2000/svg">
<path fill-rule="evenodd" clip-rule="evenodd" d="M4.1665 2.8125C4.1665 2.63991 4.30641 2.5 4.479 2.5H6.6665H8.229C9.43713 2.5 10.4165 3.47938 10.4165 4.6875V5.9375C10.4165 6.80045 11.1161 7.5 11.979 7.5H13.229C14.2576 7.5 15.1205 8.21 15.3541 9.16667H16.1665C16.3363 9.16667 16.5027 9.18077 16.6648 9.20787C16.5758 4.79771 12.973 1.25 8.5415 1.25H8.229H6.6665H4.479C3.61606 1.25 2.9165 1.94955 2.9165 2.8125V17.1875C2.9165 18.0504 3.61606 18.75 4.479 18.75H6.66764C6.66688 18.7223 6.6665 18.6945 6.6665 18.6667V17.5H4.479C4.30641 17.5 4.1665 17.3601 4.1665 17.1875V2.8125ZM11.6665 4.6875C11.6665 4.09729 11.5178 3.54183 11.2557 3.05654C12.8703 3.75102 14.1655 5.04624 14.86 6.6608C14.3747 6.39875 13.8192 6.25 13.229 6.25H11.979C11.8064 6.25 11.6665 6.11009 11.6665 5.9375V4.6875Z" fill="#474e69"/>
<rect x="8.3335" y="10.8333" width="9.16667" height="9.16667" rx="2" fill="#A78BFA"/>
<path d="M14.2714 13.3471V14.273H11.25V13.3471H14.2714ZM12.059 12.0508H13.3504V17.0995C13.3504 17.2555 13.3715 17.3757 13.4137 17.4601C13.456 17.5446 13.5193 17.6015 13.6038 17.6307C13.6883 17.6599 13.789 17.6746 13.9059 17.6746C13.9904 17.6746 14.0684 17.6697 14.1399 17.6599C14.2113 17.6502 14.2714 17.6405 14.3202 17.6307L14.325 18.5956C14.2178 18.6314 14.096 18.6606 13.9596 18.6833C13.8263 18.7061 13.6753 18.7174 13.5063 18.7174C13.2172 18.7174 12.9638 18.6687 12.7461 18.5712C12.5284 18.4705 12.3595 18.3097 12.2393 18.0888C12.1191 17.8646 12.059 17.569 12.059 17.2019V12.0508Z" fill="#070A1A"/>
</svg>
