<svg width="20" height="20" viewBox="0 0 20 20" fill="none" xmlns="http://www.w3.org/2000/svg">
<g clip-path="url(#clip0_3100_12964)">
<path fill-rule="evenodd" clip-rule="evenodd" d="M2.5 5C2.5 4.30964 3.05964 3.75 3.75 3.75H8.23223C8.39799 3.75 8.55696 3.81585 8.67417 3.93306L10.4419 5.70083C10.7936 6.05246 11.2705 6.25 11.7678 6.25H16.25C16.9404 6.25 17.5 6.80964 17.5 7.5V7.83446C17.1323 7.62174 16.7054 7.5 16.25 7.5H3.75C3.29464 7.5 2.86772 7.62174 2.5 7.83446V5ZM17.3523 9.41007C17.1416 9.01719 16.727 8.75 16.25 8.75H3.75C3.05964 8.75 2.5 9.30964 2.5 10V10.625V15C2.5 15.6904 3.05964 16.25 3.75 16.25H6.66667V17.5H3.75C2.36929 17.5 1.25 16.3807 1.25 15V10.625V10V5C1.25 3.61929 2.36929 2.5 3.75 2.5H8.23223C8.72951 2.5 9.20643 2.69754 9.55806 3.04917L11.3258 4.81694C11.443 4.93415 11.602 5 11.7678 5H16.25C17.6307 5 18.75 6.11929 18.75 7.5V10V10.625V10.6405C18.4277 10.0961 17.9382 9.66242 17.3523 9.41007Z" fill="#474e69"/>
<rect x="8.3335" y="10.8333" width="9.16667" height="9.16667" rx="2.42062" fill="#4BD8FA"/>
<path fill-rule="evenodd" clip-rule="evenodd" d="M11.4193 11.7857L12.8649 12.6201V13.6908L13.9916 14.3411L15.0196 13.7478L16.4652 14.5822V16.2509L15.0196 17.0853L13.9686 16.4787L12.8649 17.1157V18.2132L11.4193 19.0476L9.97363 18.2132V16.5445L11.4193 15.7101L12.5193 16.345L13.574 15.7363V15.0684L12.5442 14.474L11.4193 15.1233L9.97368 14.2889V12.6201L11.4193 11.7857Z" fill="#111420"/>
</g>
<defs>
<clipPath id="clip0_3100_12964">
<rect width="20" height="20" fill="white"/>
</clipPath>
</defs>
</svg>
