<svg width="20" height="20" viewBox="0 0 20 20" fill="none" xmlns="http://www.w3.org/2000/svg">
<g clip-path="url(#clip0_3100_12975)">
<path fill-rule="evenodd" clip-rule="evenodd" d="M2.98918 5.02136C2.98918 4.3947 3.49718 3.8867 4.12384 3.8867H7.38384C7.51759 3.8867 7.64586 3.93983 7.74043 4.0344L9.52338 5.81735C9.90168 6.19565 10.4148 6.40817 10.9497 6.40817H14.2097C14.7938 6.40817 15.2748 6.84943 15.3375 7.41676H2.98918V5.02136ZM16.8573 7.54283V7.63112C17.8557 8.06071 18.5259 9.08384 18.4543 10.2256C17.9786 9.66557 17.301 9.28247 16.5339 9.18889C16.3809 9.06212 16.1936 8.97447 15.9866 8.94283C15.9302 8.93421 15.8717 8.92965 15.8115 8.92965H2.52209C2.46184 8.92965 2.40342 8.93421 2.34701 8.94283C1.7449 9.03485 1.30969 9.6008 1.39883 10.2248L2.11925 15.2677C2.19911 15.8267 2.67785 16.2419 3.24251 16.2419H6.66682V17.7548H3.24251C1.92496 17.7548 0.807904 16.786 0.621574 15.4817L-0.0988478 10.4387C-0.273997 9.21268 0.416083 8.08728 1.47629 7.63112V5.02136C1.47629 3.55916 2.66164 2.37381 4.12384 2.37381H7.38384C7.91883 2.37381 8.43191 2.58633 8.8102 2.96463L10.5932 4.74758C10.6877 4.84215 10.816 4.89528 10.9497 4.89528H14.2097C15.6719 4.89528 16.8573 6.08063 16.8573 7.54283Z" fill="#070a1a"/>
<rect x="8.3335" y="10.8333" width="9.16667" height="9.16667" rx="2.42062" fill="#4BD8FA"/>
<path fill-rule="evenodd" clip-rule="evenodd" d="M11.4193 11.7858L12.8649 12.6201V13.6908L13.9916 14.3411L15.0196 13.7478L16.4652 14.5822V16.2509L15.0196 17.0853L13.9686 16.4787L12.8649 17.1158V18.2132L11.4193 19.0476L9.97363 18.2132V16.5445L11.4193 15.7101L12.5193 16.3451L13.574 15.7363V15.0684L12.5442 14.474L11.4193 15.1233L9.97368 14.2889V12.6201L11.4193 11.7858Z" fill="#111420"/>
</g>
<defs>
<clipPath id="clip0_3100_12975">
<rect width="20" height="20" fill="white"/>
</clipPath>
</defs>
</svg>
