<svg width="20" height="20" viewBox="0 0 20 20" fill="none" xmlns="http://www.w3.org/2000/svg">
<g clip-path="url(#clip0_3100_12991)">
<path fill-rule="evenodd" clip-rule="evenodd" d="M4.1665 2.8125C4.1665 2.63991 4.30641 2.5 4.479 2.5H6.6665H8.229C9.43713 2.5 10.4165 3.47938 10.4165 4.6875V5.9375C10.4165 6.80045 11.1161 7.5 11.979 7.5H13.229C14.2576 7.5 15.1205 8.21 15.3541 9.16667H16.1665C16.3363 9.16667 16.5027 9.18077 16.6648 9.20787C16.5758 4.79771 12.973 1.25 8.5415 1.25H8.229H6.6665H4.479C3.61606 1.25 2.9165 1.94955 2.9165 2.8125V17.1875C2.9165 18.0504 3.61606 18.75 4.479 18.75H6.66764C6.66688 18.7223 6.6665 18.6945 6.6665 18.6667V17.5H4.479C4.30641 17.5 4.1665 17.3601 4.1665 17.1875V2.8125ZM11.6665 4.6875C11.6665 4.09729 11.5178 3.54183 11.2557 3.05654C12.8703 3.75102 14.1655 5.04624 14.86 6.6608C14.3747 6.39875 13.8192 6.25 13.229 6.25H11.979C11.8064 6.25 11.6665 6.11009 11.6665 5.9375V4.6875Z" fill="#949BB8"/>
<rect x="8.3335" y="10.8333" width="9.16667" height="9.16667" rx="2" fill="#34D399"/>
<path d="M11.3761 16.7725L12.471 12.8333H13.3673L13.0162 14.1943L11.912 18.0185H11.2421L11.3761 16.7725ZM10.7708 12.8333L11.5932 16.7821L11.6671 18.0185H10.8956L9.5835 12.8333H10.7708ZM14.2636 16.7246L15.0674 12.8333H16.2502L14.9473 18.0185H14.1758L14.2636 16.7246ZM13.3673 12.8333L14.453 16.7342L14.5962 18.0185H13.9263L12.8129 14.1943L12.471 12.8333H13.3673Z" fill="#111420"/>
</g>
<defs>
<clipPath id="clip0_3100_12991">
<rect width="20" height="20" fill="white"/>
</clipPath>
</defs>
</svg>
