<svg width="20" height="20" viewBox="0 0 20 20" fill="none" xmlns="http://www.w3.org/2000/svg">
<g clip-path="url(#clip0_3100_12988)">
<path d="M8.54199 1.25C12.9733 1.25017 16.5732 4.79792 16.6621 9.20801C16.501 9.18123 16.3357 9.16701 16.167 9.16699H15.3516C15.1179 8.21055 14.2579 7.50015 13.2295 7.5H11.9795C11.1165 7.5 10.417 6.80045 10.417 5.9375V4.6875C10.417 3.555 9.55602 2.6239 8.45312 2.51172L8.22949 2.5H4.47949C4.3069 2.5 4.16699 2.63991 4.16699 2.8125V17.1875C4.16699 17.3601 4.3069 17.5 4.47949 17.5H6.66699V18.667C6.667 18.6948 6.66819 18.7224 6.66895 18.75H4.47949C3.61655 18.75 2.91699 18.0504 2.91699 17.1875V2.8125C2.91699 1.94955 3.61655 1.25 4.47949 1.25H8.54199ZM11.2559 3.05664C11.5179 3.54191 11.667 4.09732 11.667 4.6875V5.9375C11.667 6.11009 11.8069 6.25 11.9795 6.25H13.2295C13.8191 6.25005 14.3744 6.39852 14.8594 6.66016C14.1648 5.04604 12.8701 3.75099 11.2559 3.05664Z" fill="#F8F9FC"/>
<rect x="8.3335" y="10.8333" width="9.16667" height="9.16667" rx="2" fill="#34D399"/>
<path d="M11.3761 16.7726L12.471 12.8333H13.3673L13.0162 14.1943L11.912 18.0185H11.2421L11.3761 16.7726ZM10.7708 12.8333L11.5932 16.7821L11.6671 18.0185H10.8956L9.5835 12.8333H10.7708ZM14.2636 16.7246L15.0674 12.8333H16.2502L14.9473 18.0185H14.1758L14.2636 16.7246ZM13.3673 12.8333L14.453 16.7342L14.5962 18.0185H13.9263L12.8129 14.1943L12.471 12.8333H13.3673Z" fill="#111420"/>
</g>
<defs>
<clipPath id="clip0_3100_12988">
<rect width="20" height="20" fill="white"/>
</clipPath>
</defs>
</svg>
