<svg width="16" height="17" viewBox="0 0 16 17" fill="none" xmlns="http://www.w3.org/2000/svg">
<path d="M5.02426 5.06441C4.78995 4.83009 4.41005 4.83009 4.17574 5.06441C3.94142 5.29872 3.94142 5.67862 4.17574 5.91294L7.15147 8.88867L4.17574 11.8644C3.94142 12.0987 3.94142 12.4786 4.17574 12.7129C4.41005 12.9473 4.78995 12.9473 5.02426 12.7129L8 9.7372L10.9757 12.7129C11.2101 12.9473 11.59 12.9473 11.8243 12.7129C12.0586 12.4786 12.0586 12.0987 11.8243 11.8644L8.84853 8.88867L11.8243 5.91294C12.0586 5.67862 12.0586 5.29872 11.8243 5.06441C11.59 4.83009 11.2101 4.83009 10.9757 5.06441L8 8.04014L5.02426 5.06441Z" fill="#949BB8"/>
</svg>
