<?xml version="1.0" encoding="UTF-8"?>
<svg width="803px" height="330px" viewBox="0 0 803 330" version="1.1" xmlns="http://www.w3.org/2000/svg" xmlns:xlink="http://www.w3.org/1999/xlink">
    <!-- Generator: Sketch 61.2 (89653) - https://sketch.com -->
    <title>workflows-banner-flowchart</title>
    <desc>Created with Sketch.</desc>
    <defs>
        <polygon id="path-1" points="0.189135385 0.59 135.174366 0.59 135.174366 51.365272 0.189135385 51.365272"></polygon>
    </defs>
    <g id="workflows-banner-flowchart" stroke="none" stroke-width="1" fill="none" fill-rule="evenodd">
        <text id="stjude.cloud" font-family="StJudeSans-Regular, St Jude Sans" font-size="42" font-weight="normal" fill="#002856">
            <tspan x="367" y="147">stjude.cloud</tspan>
        </text>
        <text id="WORKFLOWS" font-family="StJudeSans-Bold, St Jude Sans" font-size="60" font-weight="bold" fill="#FDB71A">
            <tspan x="367" y="211">WORKFLOWS</tspan>
        </text>
        <g id="workflow-icon" transform="translate(47.000000, 63.000000)">
            <path d="M285,63 C285,86.7102804 265.581346,106 241.729131,106 L239.599659,106 C236.53322,106 234.022572,103.502066 234.022572,100.458436 C234.022572,97.3936547 236.53322,94.9168716 239.599659,94.9168716 C239.706133,94.9168716 239.793441,94.9168716 239.897785,94.9401377 L239.897785,94.8957206 L241.729131,94.8957206 C259.425043,94.8957206 273.820273,80.597639 273.820273,63.0232661 C273.820273,45.4235121 259.425043,31.1042794 241.729131,31.1042794 L210,31.1042794 L210,20 L241.729131,20 C265.581346,20 285,39.2897196 285,63" id="Fill-1" fill="#002856"></path>
            <path d="M48.51,184.04 L49.49,184.04 L49.49,183.96 C49.17,183.998 48.85,184.04 48.51,184.04" id="Fill-3" fill="#002856"></path>
            <path d="M11.2204724,140 C11.2204724,157.576488 25.6895388,171.895721 43.4713161,171.895721 L49.5410574,171.895721 L49.5410574,172.001476 C52.1271091,172.5091 54.0933633,174.772258 54.0933633,177.458436 C54.0933633,180.16365 52.1271091,182.428923 49.5410574,182.915396 C49.1991001,182.957698 48.8550056,183 48.491676,183 L43.4713161,183 C19.4894263,183 0,163.71028 0,140.021151 C0,116.28972 19.4894263,97 43.4713161,97 L76,97 L76,108.104279 L43.4713161,108.104279 C25.6895388,108.104279 11.2204724,122.402361 11.2204724,140" id="Fill-5" fill="#002856"></path>
            <path d="M286,177.494944 C286,180.645746 284.352611,183.479338 281.617646,185.05261 L250.744594,202.809934 C249.374975,203.595505 247.857924,204 246.36224,204 C244.84519,204 243.349506,203.595505 241.982023,202.809934 C239.247058,201.232404 237.603943,198.422229 237.603943,195.250138 L237.603943,182.817244 L211,182.817244 L211,172.172643 L237.603943,172.172643 L237.603943,159.73975 C237.603943,156.588948 239.247058,153.757484 241.982023,152.179954 C244.719125,150.606682 248.009629,150.606682 250.744594,152.179954 L281.617646,169.937277 C284.352611,171.510549 286,174.344142 286,177.494944" id="Fill-7" fill="#002856"></path>
            <path d="M69,177.989071 C69,181.289617 66.3131718,184 63.012024,184 C59.6868282,184 57,181.289617 57,177.989071 C57,174.688525 59.6868282,172 63.012024,172 C66.3131718,172 69,174.688525 69,177.989071" id="Fill-9" fill="#002856"></path>
            <path d="M68,25.5 C68,28.5438931 65.5229008,31 62.5020992,31 C59.4561069,31 57,28.5438931 57,25.5 C57,22.4791985 59.4561069,20 62.5020992,20 C65.5229008,20 68,22.4791985 68,25.5" id="Fill-11" fill="#002856"></path>
            <path d="M202,164.410658 L202,191.589342 C202,193.465204 200.471393,195 198.600972,195 L143,195 L143,161 L198.600972,161 C200.471393,161 202,162.511348 202,164.410658" id="Fill-13" fill="#FF9233"></path>
            <path d="M143,161 L143,195 L87.3756747,195 C85.5073768,195 84,193.465108 84,191.59126 L84,164.410872 C84,162.511443 85.5073768,161 87.3756747,161 L143,161 Z" id="Fill-15" fill="#FDB71A"></path>
            <path d="M202.506763,192.075157 C202.506763,193.949061 200.97798,195.482255 199.107345,195.482255 L87.8692985,195.482255 C86.0007864,195.482255 84.4932369,193.949061 84.4932369,192.075157 L84.4932369,164.924843 C84.4932369,163.027516 86.0007864,161.517745 87.8692985,161.517745 L199.107345,161.517745 C200.97798,161.517745 202.506763,163.027516 202.506763,164.924843 L202.506763,192.075157 Z M199.107345,153 L87.8692985,153 C81.3316294,153 76,158.344885 76,164.924843 L76,192.075157 C76,198.655115 81.3316294,204 87.8692985,204 L199.107345,204 C205.647137,204 211,198.655115 211,192.075157 L211,164.924843 C211,158.344885 205.647137,153 199.107345,153 L199.107345,153 Z" id="Fill-17" fill="#002856"></path>
            <path d="M202.506763,116.074023 C202.506763,117.969063 200.97798,119.482966 199.107345,119.482966 L87.8692985,119.482966 C86.0007864,119.482966 84.4932369,117.969063 84.4932369,116.074023 L84.4932369,88.925977 C84.4932369,87.0522295 86.0007864,85.5170341 87.8692985,85.5170341 L199.107345,85.5170341 C200.97798,85.5170341 202.506763,87.0522295 202.506763,88.925977 L202.506763,116.074023 Z M199.107345,77 L87.8692985,77 C81.3316294,77 76,82.3465681 76,88.925977 L76,116.074023 C76,122.653432 81.3316294,128 87.8692985,128 L199.107345,128 C205.647137,128 211,122.653432 211,116.074023 L211,88.925977 C211,82.3465681 205.647137,77 199.107345,77 L199.107345,77 Z" id="Fill-19" fill="#002856"></path>
            <path d="M143,86 L143,120 L87.3756747,120 C85.5073768,120 84,118.484484 84,116.589556 L84,89.412576 C84,87.5368315 85.5073768,86 87.3756747,86 L143,86 Z" id="Fill-21" fill="#FDB71A"></path>
            <path d="M202,89.4123621 L202,116.587638 C202,118.484579 200.471393,120 198.600972,120 L143,120 L143,86 L198.600972,86 C200.471393,86 202,87.5367352 202,89.4123621" id="Fill-23" fill="#FF9233"></path>
            <g id="Group-27" transform="translate(75.000000, 0.000000)">
                <mask id="mask-2" fill="white">
                    <use xlink:href="#path-1"></use>
                </mask>
                <g id="Clip-26"></g>
                <path d="M126.682058,39.491152 C126.682058,41.356752 125.153443,42.885272 123.283012,42.885272 L12.0571354,42.885272 C10.1888277,42.885272 8.68144308,41.356752 8.68144308,39.491152 L8.68144308,12.461152 C8.68144308,10.574352 10.1888277,9.069152 12.0571354,9.069152 L123.283012,9.069152 C125.153443,9.069152 126.682058,10.574352 126.682058,12.461152 L126.682058,39.491152 Z M123.283012,0.589152 L12.0571354,0.589152 C5.52018154,0.589152 0.189135385,5.910352 0.189135385,12.461152 L0.189135385,39.491152 C0.189135385,46.044072 5.52018154,51.365272 12.0571354,51.365272 L123.283012,51.365272 C129.822089,51.365272 135.174366,46.044072 135.174366,39.491152 L135.174366,12.461152 C135.174366,5.910352 129.822089,0.589152 123.283012,0.589152 L123.283012,0.589152 Z" id="Fill-25" fill="#002856" mask="url(#mask-2)"></path>
            </g>
            <path d="M143,9 L143,43 L87.3756747,43 C85.5073768,43 84,41.4630721 84,39.5893417 L84,12.4106583 C84,10.5134796 85.5073768,9 87.3756747,9 L143,9 Z" id="Fill-28" fill="#FDB71A"></path>
            <path d="M202,12.4104445 L202,39.587424 C202,41.4631685 200.471393,43 198.600972,43 L143,43 L143,9 L198.600972,9 C200.471393,9 202,10.5133847 202,12.4104445" id="Fill-30" fill="#FF9233"></path>
            <path d="M47.6832579,31 L11.3167421,31 C8.38190045,31 6,28.5382 6,25.5 C6,22.4618 8.38190045,20 11.3167421,20 L47.6832579,20 C50.6202262,20 53,22.4618 53,25.5 C53,28.5382 50.6202262,31 47.6832579,31" id="Fill-32" fill="#002856"></path>
            <path d="M231,101.010929 C231,104.311475 228.311475,107 225.010929,107 C221.710383,107 219,104.311475 219,101.010929 C219,97.7103825 221.710383,95 225.010929,95 C228.311475,95 231,97.7103825 231,101.010929" id="Fill-34" fill="#002856"></path>
        </g>
    </g>
</svg>